<?xml version="1.0" standalone="no"?>
<!DOCTYPE svg PUBLIC "-//W3C//DTD SVG 20010904//EN"
 "http://www.w3.org/TR/2001/REC-SVG-20010904/DTD/svg10.dtd">
<svg version="1.0" xmlns="http://www.w3.org/2000/svg"
 width="520.000000pt" height="521.000000pt" viewBox="0 0 520.000000 521.000000"
 preserveAspectRatio="xMidYMid meet">

<g transform="translate(0.000000,521.000000) scale(0.100000,-0.100000)"
fill="#e50615" stroke="none">
<path d="M2335 5048 c-44 -5 -135 -20 -203 -34 -864 -177 -1571 -805 -1851
-1644 -140 -418 -163 -889 -65 -1330 204 -918 945 -1658 1865 -1864 342 -76
739 -78 1077 -5 211 46 470 143 657 246 669 370 1125 1011 1256 1768 30 170
37 531 15 705 -72 549 -302 1029 -681 1419 -399 411 -898 661 -1468 736 -130
17 -466 19 -602 3z m625 -113 c786 -117 1453 -604 1796 -1310 167 -344 238
-653 238 -1035 0 -386 -75 -707 -245 -1050 -117 -235 -238 -407 -419 -594
-852 -883 -2231 -969 -3185 -199 -442 357 -741 860 -845 1418 -181 981 283
1978 1154 2480 297 170 633 274 1006 309 87 8 396 -4 500 -19z"/>
<path d="M2516 4832 l-29 -4 7 -60 c3 -34 6 -81 6 -104 0 -42 1 -44 30 -44
l30 0 -1 63 c0 34 -4 82 -7 107 -7 42 -9 45 -36 42z"/>
<path d="M2600 4730 l0 -110 30 0 c28 0 29 1 32 58 l3 57 40 -57 c31 -45 46
-58 66 -58 24 0 27 4 33 53 3 28 6 76 6 105 0 51 -1 52 -29 52 -29 0 -30 -2
-33 -52 l-3 -53 -44 58 c-35 46 -49 57 -72 57 l-29 0 0 -110z"/>
<path d="M2850 4801 c0 -28 3 -31 31 -31 l31 0 -6 -47 c-4 -27 -10 -65 -13
-85 -5 -37 -5 -38 25 -38 28 0 30 3 36 48 17 118 15 113 52 106 31 -6 34 -4
34 19 0 27 -7 30 -105 42 -27 4 -58 9 -67 12 -14 3 -18 -2 -18 -26z"/>
<path d="M2250 4806 c-36 -6 -65 -16 -65 -21 0 -48 30 -205 39 -204 23 1 157
26 161 30 2 3 2 15 -2 27 -3 15 -11 21 -22 18 -9 -2 -35 -8 -58 -11 -36 -6
-43 -4 -43 9 0 18 7 21 63 31 32 5 38 10 35 28 -2 12 -8 21 -13 21 -6 -1 -29
-4 -53 -8 -38 -6 -43 -4 -40 11 2 13 18 20 56 26 47 8 53 11 50 30 -4 27 -21
29 -108 13z"/>
<path d="M3059 4686 l-26 -104 83 -21 c46 -12 85 -21 87 -21 3 0 7 11 9 25 5
22 1 25 -48 36 -43 10 -54 16 -54 32 0 16 5 18 26 13 81 -21 86 -20 82 5 -2
18 -12 25 -48 34 -25 6 -44 14 -43 18 6 24 12 26 61 13 46 -13 54 -13 59 0 10
28 -6 41 -64 53 -32 6 -67 14 -78 17 -19 5 -23 -5 -46 -100z"/>
<path d="M2020 4753 c-30 -8 -58 -18 -62 -22 -7 -6 37 -189 48 -200 1 -2 14
-1 28 3 22 5 24 10 19 41 -7 43 12 47 47 10 20 -21 30 -24 55 -19 41 9 42 10
6 39 -29 25 -30 28 -16 55 21 40 4 85 -37 99 -17 6 -31 11 -32 10 -1 0 -26 -7
-56 -16z m74 -58 c5 -15 -28 -45 -51 -45 -18 0 -28 41 -12 51 22 14 56 10 63
-6z"/>
<path d="M3292 4703 c-17 -42 -62 -165 -62 -168 0 -2 13 -8 29 -13 28 -10 30
-9 36 19 9 41 36 34 48 -11 10 -41 14 -45 45 -55 23 -7 23 -6 17 39 -6 37 -4
46 7 46 43 0 64 82 29 114 -17 16 -111 56 -130 56 -5 0 -13 -12 -19 -27z m99
-59 c20 -24 3 -47 -29 -39 -35 9 -36 10 -28 39 4 18 11 23 26 19 10 -3 24 -11
31 -19z"/>
<path d="M1780 4673 c-114 -59 -69 -223 58 -210 49 5 79 28 98 74 40 93 -64
183 -156 136z m97 -69 c15 -24 15 -29 2 -53 -11 -20 -22 -26 -49 -26 -27 0
-38 6 -49 26 -13 24 -13 29 2 53 12 18 26 26 47 26 21 0 35 -8 47 -26z"/>
<path d="M3485 4560 c-25 -49 -45 -93 -45 -98 0 -5 11 -14 24 -20 22 -10 25
-7 46 39 13 27 27 46 30 42 4 -5 12 -35 19 -68 10 -54 30 -85 53 -85 8 0 98
173 98 188 0 5 -11 14 -26 20 -24 12 -26 10 -48 -40 l-24 -53 -10 40 c-6 22
-13 54 -17 71 -4 20 -15 35 -30 42 -24 11 -26 9 -70 -78z"/>
<path d="M1552 4560 c-34 -16 -62 -32 -62 -35 0 -16 96 -185 106 -185 5 0 19
6 29 14 18 13 18 15 2 40 -17 25 -17 26 13 41 51 26 66 84 33 123 -29 33 -54
34 -121 2z m78 -45 c14 -16 7 -30 -21 -45 -16 -9 -21 -7 -31 15 -10 22 -9 28
3 36 20 13 35 11 49 -6z"/>
<path d="M2420 4479 c-802 -90 -1470 -688 -1644 -1470 -121 -550 -3 -1105 333
-1559 69 -93 223 -253 316 -330 765 -627 1882 -561 2571 152 607 627 707 1577
246 2322 -381 615 -1103 966 -1822 885z m135 -206 c-25 -58 -76 -165 -114
-237 -185 -351 -246 -583 -221 -833 20 -198 62 -317 231 -654 59 -119 124
-263 144 -319 84 -244 86 -461 5 -696 -17 -49 -91 -213 -165 -364 -74 -151
-137 -287 -141 -303 -3 -15 -10 -29 -14 -32 -13 -8 -340 88 -340 100 0 1 52
108 115 236 171 349 208 475 208 704 0 196 -35 341 -134 554 l-39 84 -37 -6
c-21 -3 -105 -14 -186 -23 -99 -11 -146 -21 -143 -28 2 -6 25 -56 50 -111 78
-173 98 -257 103 -435 6 -180 -11 -277 -73 -433 -44 -110 -171 -367 -182 -367
-14 0 -144 103 -222 177 -269 253 -457 593 -530 958 -28 139 -38 419 -20 562
15 125 69 334 114 445 135 334 362 616 657 818 50 35 90 59 88 53 -2 -5 -41
-83 -86 -174 -201 -403 -234 -686 -117 -1020 39 -112 103 -259 113 -259 3 0
88 10 188 21 l182 22 -25 49 c-121 240 -167 485 -130 698 26 148 67 256 200
525 68 138 131 271 141 297 16 43 21 47 64 57 82 20 224 39 293 40 l67 1 -44
-107z m660 10 c55 -19 101 -36 103 -38 2 -2 -44 -97 -101 -211 -113 -226 -165
-355 -199 -492 -18 -70 -22 -116 -22 -237 1 -159 12 -230 60 -373 30 -91 109
-262 121 -262 4 0 87 9 184 21 l176 22 -53 123 c-63 144 -91 244 -105 375 -17
159 14 348 87 522 41 96 163 337 172 337 4 0 36 -23 72 -50 357 -278 583 -638
678 -1079 24 -116 26 -145 26 -351 0 -206 -2 -235 -26 -351 -101 -471 -361
-862 -750 -1130 -49 -33 -88 -58 -88 -55 0 2 40 85 88 184 145 293 189 464
178 687 -8 170 -39 291 -123 480 -25 55 -46 101 -48 103 -4 4 -358 -39 -364
-44 -1 -1 20 -57 48 -122 80 -186 103 -288 104 -457 1 -232 -27 -324 -222
-719 -66 -133 -125 -258 -132 -278 -11 -31 -19 -38 -57 -48 -68 -17 -241 -40
-304 -40 l-58 0 16 43 c9 23 76 166 149 317 195 402 221 495 212 760 -8 236
-44 346 -245 741 -156 309 -200 468 -189 692 9 192 45 302 202 617 90 180 136
280 166 357 8 21 9 21 76 6 37 -9 113 -31 168 -50z"/>
<path d="M3735 4430 c-49 -33 -91 -64 -93 -70 -2 -5 8 -15 22 -21 19 -9 29 -9
40 0 22 19 88 -26 81 -55 -3 -16 2 -27 21 -39 14 -9 27 -15 29 -13 1 2 11 54
22 116 l20 113 -21 14 c-11 8 -23 15 -26 15 -3 0 -45 -27 -95 -60z m66 -63
c-8 -8 -14 -7 -23 2 -11 10 -9 15 7 27 18 13 20 13 23 -2 2 -9 -1 -21 -7 -27z"/>
<path d="M1346 4437 c-17 -12 -17 -18 4 -125 14 -70 27 -112 35 -112 18 0 40
30 37 51 -2 10 10 26 28 39 25 18 36 20 54 12 17 -7 27 -5 45 9 13 11 22 21
20 23 -26 19 -187 116 -195 116 -6 0 -18 -6 -28 -13z m75 -78 c16 -8 18 -13 8
-25 -17 -20 -26 -17 -31 11 -6 28 -4 29 23 14z"/>
<path d="M3935 4390 c-17 -19 -17 -21 9 -41 l26 -21 -50 -63 c-27 -34 -50 -65
-50 -68 0 -2 11 -12 23 -20 23 -15 25 -14 72 48 47 63 54 66 86 38 13 -11 18
-10 34 7 10 11 16 22 14 23 -2 2 -36 29 -75 60 -70 55 -72 56 -89 37z"/>
<path d="M1185 4310 c-38 -15 -67 -57 -72 -104 -5 -42 -3 -48 30 -81 28 -28
43 -35 74 -35 50 0 95 29 117 74 l17 36 -32 39 -31 40 -39 -31 c-32 -26 -36
-33 -26 -48 8 -15 15 -16 30 -8 33 17 42 -7 11 -31 -33 -26 -45 -26 -72 -1
-38 36 -24 89 28 105 26 8 28 55 3 54 -10 0 -27 -4 -38 -9z"/>
<path d="M4053 4181 l-72 -78 23 -22 22 -21 73 81 c71 78 73 81 56 99 -10 11
-21 20 -24 20 -3 0 -38 -35 -78 -79z"/>
<path d="M1007 4146 c-16 -23 -15 -25 26 -60 l42 -36 -77 6 c-72 6 -77 5 -88
-16 -10 -19 -8 -26 17 -52 15 -16 50 -48 76 -70 46 -39 48 -40 68 -22 19 17
19 18 -21 59 l-40 40 73 -3 c61 -3 75 -1 89 15 17 19 15 22 -61 91 -44 40 -82
72 -84 72 -3 0 -12 -11 -20 -24z"/>
<path d="M4153 4134 c-18 -9 -39 -31 -48 -51 -47 -99 64 -200 164 -149 74 39
66 162 -13 200 -42 20 -62 20 -103 0z m97 -64 c25 -25 25 -41 2 -70 -34 -42
-102 -21 -102 32 0 24 35 58 60 58 11 0 29 -9 40 -20z"/>
<path d="M4313 3918 c-85 -61 -95 -76 -68 -98 13 -11 23 -8 60 18 25 17 45 28
45 24 0 -4 -9 -36 -19 -71 -16 -50 -17 -67 -8 -82 6 -10 15 -19 19 -19 4 0 46
27 92 61 85 60 85 61 70 85 -17 25 -20 24 -70 -13 -17 -13 -33 -23 -37 -23 -3
0 3 28 14 63 10 34 16 69 13 79 -12 39 -28 35 -111 -24z"/>
<path d="M838 3948 c-15 -22 -12 -25 69 -86 81 -61 85 -63 104 -46 10 9 19 20
19 23 0 7 -164 131 -173 131 -2 0 -11 -10 -19 -22z"/>
<path d="M760 3835 c-84 -86 -3 -184 87 -105 18 17 38 30 43 30 20 0 9 -29
-20 -53 -34 -29 -41 -67 -11 -67 10 0 35 18 55 40 44 49 49 99 14 124 -32 23
-49 20 -94 -14 -21 -16 -42 -30 -46 -30 -18 0 -6 30 18 49 19 15 24 26 19 41
-9 29 -26 25 -65 -15z"/>
<path d="M4460 3685 c-58 -7 -106 -14 -108 -14 -1 -1 5 -12 14 -26 9 -14 26
-25 38 -25 30 0 61 -62 45 -88 -9 -14 -8 -25 3 -45 l14 -28 73 92 c70 87 72
92 61 120 -7 16 -18 28 -24 28 -6 -1 -58 -7 -116 -14z m70 -53 c0 -5 -8 -16
-18 -25 -16 -15 -19 -15 -30 3 -12 19 -12 19 41 29 4 0 7 -3 7 -7z"/>
<path d="M618 3595 c-6 -14 -9 -27 -7 -29 2 -2 45 -24 96 -50 88 -44 93 -45
103 -27 5 11 10 24 10 30 0 9 -169 101 -185 101 -3 0 -11 -11 -17 -25z"/>
<path d="M4575 3488 c-49 -22 -92 -41 -94 -44 -2 -2 8 -35 23 -74 21 -52 33
-70 46 -70 29 0 34 19 14 61 -21 47 -18 51 61 83 62 25 74 40 53 67 -12 15
-22 12 -103 -23z"/>
<path d="M541 3423 c-12 -25 -9 -30 71 -110 l82 -83 14 26 c12 22 11 28 -2 43
-15 16 -15 21 -1 54 10 25 22 37 35 37 18 0 40 27 40 49 0 7 -40 11 -113 11
-114 0 -114 0 -126 -27z m129 -35 c-1 -33 -16 -38 -40 -13 l-23 25 31 0 c19 0
32 -5 32 -12z"/>
<path d="M480 3257 c0 -9 -3 -22 -6 -31 -4 -11 4 -17 30 -22 44 -8 45 -10 34
-51 -9 -35 -21 -39 -62 -23 -23 8 -26 7 -32 -16 -4 -14 -3 -29 2 -33 10 -9
164 -51 187 -51 8 0 17 11 19 25 5 22 1 26 -33 35 -43 12 -44 14 -28 58 10 29
12 30 46 20 27 -7 38 -7 44 4 22 33 9 43 -83 67 -51 13 -99 26 -105 29 -7 2
-13 -3 -13 -11z"/>
<path d="M4690 3220 c-15 -15 -20 -33 -20 -70 0 -36 -4 -50 -14 -50 -17 0 -27
34 -19 70 4 23 1 29 -17 35 -30 9 -35 1 -34 -56 1 -53 27 -101 58 -107 40 -8
65 8 76 47 5 21 8 45 5 52 -3 8 0 21 5 29 9 13 11 13 20 0 6 -8 9 -28 7 -43
-3 -20 2 -31 16 -39 28 -14 39 6 33 62 -7 75 -72 114 -116 70z"/>
<path d="M4692 3014 c-37 -19 -62 -59 -62 -99 0 -33 25 -82 49 -94 25 -14 48
31 25 49 -18 16 -18 64 1 80 20 16 61 16 81 -1 12 -9 14 -23 10 -50 -5 -28 -1
-40 14 -54 19 -17 20 -17 36 21 41 98 -60 195 -154 148z"/>
<path d="M426 2988 c-39 -60 -26 -136 28 -169 93 -57 198 28 170 139 -8 34
-13 38 -56 46 -27 5 -50 7 -53 4 -3 -2 -8 -26 -11 -51 -6 -43 -5 -47 13 -47
13 0 23 8 26 21 3 12 12 19 19 17 21 -7 21 -45 -1 -67 -55 -55 -130 13 -89 78
9 15 9 23 -1 35 -18 22 -28 20 -45 -6z"/>
<path d="M4672 2783 c-18 -4 -23 -10 -20 -31 3 -25 6 -27 46 -24 l42 3 0 -40
0 -41 -40 0 c-38 0 -40 -2 -40 -30 l0 -30 98 0 c53 0 103 4 110 9 8 4 12 19
10 32 -3 21 -7 23 -45 21 l-43 -4 0 41 0 41 40 0 c38 0 40 2 40 30 l0 30 -87
-1 c-49 -1 -98 -4 -111 -6z"/>
<path d="M387 2748 c-4 -12 -7 -26 -7 -29 0 -4 25 -10 56 -14 l56 -7 -56 -41
c-45 -33 -56 -46 -56 -69 l0 -28 95 -1 c52 -1 101 -2 108 -3 6 -1 13 11 15 26
3 25 0 27 -45 33 -26 4 -52 8 -57 9 -5 1 17 19 48 41 46 31 56 43 56 67 l0 28
-74 0 c-40 0 -87 3 -103 6 -26 5 -31 2 -36 -18z"/>
<path d="M4688 2521 c-30 -27 -33 -35 -33 -85 0 -46 4 -60 26 -82 58 -57 153
-38 183 37 46 115 -85 212 -176 130z m114 -48 c35 -32 10 -93 -39 -93 -26 0
-63 32 -63 55 0 22 37 55 62 55 12 0 30 -7 40 -17z"/>
<path d="M483 2479 c-84 -45 -93 -53 -93 -79 0 -27 4 -30 111 -65 60 -20 112
-35 114 -34 10 11 -10 59 -26 64 -15 5 -19 16 -19 51 0 30 5 46 15 50 18 7 20
64 3 64 -7 0 -55 -23 -105 -51z m37 -69 c0 -21 -16 -26 -39 -11 -11 7 -10 11
5 20 27 15 34 14 34 -9z"/>
<path d="M4681 2277 c-91 -46 -85 -182 10 -213 67 -23 136 22 146 93 12 92
-77 161 -156 120z m92 -79 c19 -25 19 -28 3 -52 -30 -47 -106 -26 -106 29 0
27 36 57 64 53 10 -2 28 -15 39 -30z"/>
<path d="M506 2259 c-49 -10 -91 -21 -94 -24 -2 -2 -2 -15 2 -29 5 -22 10 -24
42 -19 39 6 54 -5 54 -43 0 -23 -17 -34 -51 -34 -14 0 -19 -7 -19 -30 0 -22 5
-30 18 -30 21 1 192 36 197 41 2 2 1 16 -2 30 -5 25 -7 26 -41 18 -42 -9 -47
-6 -57 38 -6 30 -5 31 34 38 41 7 47 17 35 49 -7 19 -5 19 -118 -5z"/>
<path d="M600 2043 c-28 -10 -40 -37 -40 -91 0 -65 -23 -69 -28 -4 -2 23 -7
42 -12 42 -4 0 -15 3 -24 6 -28 11 -22 -88 7 -122 51 -59 117 -21 117 68 0 63
24 61 28 -3 3 -43 14 -59 41 -59 10 0 12 14 9 62 -4 51 -9 65 -32 85 -27 23
-38 26 -66 16z"/>
<path d="M4585 2038 c-12 -34 -44 -142 -42 -144 1 -1 12 -4 24 -8 18 -6 23 -1
38 44 9 27 17 50 18 50 1 0 36 -11 77 -24 77 -25 89 -23 90 16 0 16 -27 27
-183 74 -9 3 -19 -1 -22 -8z"/>
<path d="M4494 1645 c-15 -23 -15 -27 0 -50 19 -29 56 -33 80 -9 21 21 20 47
-2 67 -27 24 -59 21 -78 -8z"/>
<path d="M698 1649 c-21 -12 -24 -59 -6 -77 7 -7 24 -12 38 -12 32 0 50 17 50
46 0 44 -43 66 -82 43z"/>
<path d="M4257 1376 c-26 -35 -47 -66 -47 -69 0 -6 147 -117 163 -122 6 -2 34
25 61 62 47 64 48 66 29 84 -19 19 -20 19 -52 -26 -18 -25 -36 -45 -41 -45
-22 0 -19 24 9 59 23 29 27 41 19 49 -20 20 -34 14 -59 -23 -23 -33 -39 -42
-52 -29 -3 4 9 27 28 52 27 35 32 48 24 58 -20 24 -34 15 -82 -50z"/>
<path d="M891 1414 c-20 -14 -22 -23 -18 -58 3 -22 9 -51 13 -63 4 -17 2 -23
-8 -23 -15 0 -38 40 -38 65 0 9 -10 15 -25 15 -30 0 -33 -25 -9 -76 29 -62 93
-84 127 -46 21 23 21 52 3 97 -11 24 -12 37 -4 41 13 8 38 -23 38 -48 0 -13 8
-18 31 -18 26 0 29 3 25 20 -3 11 -8 29 -12 40 -7 24 -60 70 -83 70 -9 0 -27
-7 -40 -16z"/>
<path d="M1022 1288 c-9 -9 -7 -17 11 -36 l22 -24 -63 -57 -62 -57 22 -21 23
-21 60 54 60 54 21 -24 c22 -24 22 -25 40 -5 17 18 16 20 -7 47 -91 104 -104
113 -127 90z"/>
<path d="M4134 1226 c-40 -40 -46 -92 -15 -142 54 -89 201 -48 201 55 0 45
-35 43 -54 -3 -16 -39 -45 -52 -76 -36 -46 24 -43 80 6 102 15 7 24 20 24 35
0 36 -44 31 -86 -11z"/>
<path d="M1117 1075 c-68 -75 -77 -98 -42 -111 9 -4 26 3 39 15 29 28 40 15
31 -37 -5 -31 -2 -41 18 -60 l24 -23 7 23 c3 13 6 32 6 44 0 17 6 21 32 21 38
0 68 32 68 74 0 21 -13 41 -52 79 -29 27 -55 50 -58 50 -3 0 -36 -34 -73 -75z
m108 -25 c19 -21 14 -50 -8 -50 -8 0 -22 9 -32 20 -15 16 -15 22 -5 35 16 20
23 19 45 -5z"/>
<path d="M4015 1100 c-17 -18 -16 -20 14 -56 17 -21 29 -39 28 -41 -2 -1 -33
3 -70 9 -68 11 -98 3 -97 -26 1 -6 32 -45 69 -86 68 -74 69 -75 90 -56 l20 18
-37 46 -37 45 35 -7 c81 -16 115 -17 134 -2 18 15 15 19 -54 96 -40 44 -73 80
-75 80 -1 0 -10 -9 -20 -20z"/>
<path d="M1294 932 c-78 -99 -76 -94 -49 -114 23 -18 24 -18 90 68 37 47 65
86 64 87 -2 1 -13 10 -24 19 -20 17 -22 15 -81 -60z"/>
<path d="M3825 948 c-16 -12 -47 -34 -67 -48 l-37 -26 56 -80 c30 -43 59 -83
63 -88 5 -5 40 14 79 41 67 48 70 51 55 71 l-15 21 -44 -31 c-35 -25 -48 -29
-57 -20 -10 10 -8 15 7 26 57 40 65 50 51 68 -12 17 -16 16 -56 -13 -34 -24
-44 -28 -51 -17 -6 9 -1 19 15 31 68 49 71 54 57 71 -17 20 -20 20 -56 -6z"/>
<path d="M1391 852 c-26 -131 -26 -129 0 -143 19 -10 33 -3 115 52 52 35 94
67 94 70 0 4 -11 14 -24 22 -23 15 -26 14 -77 -24 -30 -22 -55 -36 -57 -30 -2
5 4 35 12 67 8 32 14 59 13 59 -1 1 -14 8 -28 17 l-26 17 -22 -107z"/>
<path d="M1568 730 c-27 -49 -48 -91 -48 -94 0 -3 35 -24 79 -45 l78 -40 11
23 c10 22 7 25 -29 41 -44 20 -64 39 -54 54 3 7 23 2 51 -12 39 -18 46 -19 54
-7 15 24 12 28 -35 52 -32 17 -42 27 -36 36 7 11 19 9 59 -12 l51 -26 12 21
c9 17 8 24 -2 31 -25 16 -128 68 -136 68 -4 0 -29 -41 -55 -90z"/>
<path d="M3582 798 c-12 -6 -21 -14 -20 -17 28 -58 102 -181 110 -181 8 0 125
64 136 75 2 2 -2 12 -9 23 -13 20 -13 20 -60 -4 l-48 -24 -37 70 c-21 39 -41
70 -44 69 -3 0 -15 -5 -28 -11z"/>
<path d="M3423 719 c-13 -4 -23 -13 -23 -18 0 -8 77 -182 84 -188 7 -7 146 61
146 71 0 6 -5 18 -10 26 -8 12 -16 11 -56 -8 -25 -13 -47 -22 -48 -20 -1 2
-15 32 -30 68 -35 79 -35 80 -63 69z"/>
<path d="M1870 699 c0 -2 -16 -48 -35 -102 l-35 -98 26 -10 c15 -5 28 -8 29
-7 1 2 7 18 14 36 8 17 15 32 16 32 1 0 22 -7 46 -15 34 -12 44 -13 51 -3 15
24 8 35 -32 47 -43 13 -58 27 -42 43 7 7 25 5 57 -8 40 -15 48 -15 56 -3 17
28 8 38 -58 60 -38 12 -74 24 -80 27 -7 2 -13 3 -13 1z"/>
<path d="M3283 667 c-34 -12 -65 -25 -68 -29 -10 -9 57 -198 70 -198 6 0 43
12 83 26 53 20 71 31 67 41 -3 8 -5 19 -5 23 0 5 -24 1 -54 -10 -30 -10 -57
-16 -60 -13 -16 16 -2 33 36 45 44 15 53 25 40 46 -7 10 -17 9 -52 -3 -27 -10
-47 -12 -53 -6 -15 15 -1 27 48 41 38 11 45 17 43 34 -4 28 -22 29 -95 3z"/>
<path d="M2084 610 c-34 -13 -64 -59 -64 -97 0 -52 24 -88 69 -107 95 -38 179
34 155 133 -16 62 -95 97 -160 71z m86 -60 c24 -24 26 -57 3 -82 -33 -37 -93
-12 -93 38 0 27 32 64 55 64 8 0 24 -9 35 -20z"/>
<path d="M3074 610 c-35 -14 -64 -59 -64 -99 0 -110 133 -159 201 -73 l20 27
-26 8 c-19 7 -31 5 -44 -7 -37 -34 -91 -6 -91 46 0 40 39 62 80 44 9 -4 20 2
29 16 12 19 11 23 -5 35 -20 15 -68 16 -100 3z"/>
<path d="M2948 583 c-17 -3 -30 -14 -38 -34 -7 -16 -14 -29 -17 -29 -2 0 -14
12 -27 26 -19 22 -27 25 -54 19 l-33 -7 41 -44 c22 -24 40 -46 40 -49 0 -3
-11 -28 -25 -55 -14 -27 -25 -52 -25 -55 0 -3 13 -5 30 -5 25 0 32 6 46 38
l16 37 26 -30 c23 -26 32 -30 60 -25 l32 5 -40 45 c-21 25 -39 51 -40 58 0 7
11 35 25 62 14 28 22 49 18 49 -5 -1 -20 -4 -35 -6z"/>
<path d="M2295 568 c-4 -14 -24 -192 -22 -195 1 -1 14 -4 28 -8 24 -6 27 -3
33 29 8 43 26 39 49 -9 14 -29 22 -35 47 -35 35 0 35 1 15 40 -14 27 -14 30
10 54 49 49 22 112 -55 127 -64 12 -100 11 -105 -3z m120 -73 c0 -13 -8 -21
-23 -23 -36 -5 -51 4 -45 28 8 29 68 25 68 -5z"/>
<path d="M2590 533 c0 -16 3 -65 7 -110 l6 -83 83 0 84 0 0 28 c0 27 -1 27
-55 24 -50 -4 -55 -2 -55 17 0 19 6 21 50 21 47 0 50 2 50 26 0 24 -2 25 -52
23 -43 -3 -54 0 -56 14 -3 15 5 17 57 17 58 0 61 1 61 25 0 25 -1 25 -90 25
l-90 0 0 -27z"/>
</g>
</svg>
